<svg width="16" height="19" viewBox="0 0 16 19" fill="none" xmlns="http://www.w3.org/2000/svg">
<path d="M13.0284 11.3701C14.2059 11.3701 15.1604 12.3246 15.1604 13.5021V14.3597C15.1604 15.396 14.708 16.3807 13.9217 17.0558C12.4383 18.3292 10.3155 18.9516 7.57708 18.9516C4.83912 18.9516 2.71772 18.3295 1.23682 17.0563C0.451656 16.3812 0 15.3973 0 14.3618V13.5021C0 12.3246 0.954527 11.3701 2.132 11.3701H13.0284ZM7.48096 0.00648759L7.57739 0C7.93717 0 8.23451 0.267356 8.28157 0.614233L8.28806 0.710666L8.28731 1.42038L11.6042 1.42086C12.7816 1.42086 13.7362 2.37539 13.7362 3.55286V7.8212C13.7362 8.99867 12.7816 9.9532 11.6042 9.9532H3.54997C2.3725 9.9532 1.41798 8.99867 1.41798 7.8212V3.55286C1.41798 2.37539 2.3725 1.42086 3.54997 1.42086L6.86598 1.42038L6.86672 0.710666C6.86672 0.350883 7.13408 0.0535454 7.48096 0.00648759ZM5.44441 4.26353C4.79063 4.26353 4.26064 4.79352 4.26064 5.44729C4.26064 6.10107 4.79063 6.63106 5.44441 6.63106C6.09818 6.63106 6.62817 6.10107 6.62817 5.44729C6.62817 4.79352 6.09818 4.26353 5.44441 4.26353ZM9.70152 4.26353C9.04774 4.26353 8.51775 4.79352 8.51775 5.44729C8.51775 6.10107 9.04774 6.63106 9.70152 6.63106C10.3553 6.63106 10.8853 6.10107 10.8853 5.44729C10.8853 4.79352 10.3553 4.26353 9.70152 4.26353Z" fill="white"/>
</svg>
