<svg width="97" height="97" viewBox="0 0 97 97" fill="none" xmlns="http://www.w3.org/2000/svg">
<rect width="97" height="97" fill="#232323"/>
<path d="M24.415 74.6231C24.415 74.9218 24.6584 75.1542 24.9461 75.1542H71.9534C72.2521 75.1542 72.4845 74.9108 72.4845 74.6231V44.9296C72.4845 44.6309 72.2411 44.3986 71.9534 44.3986H24.9571C24.6584 44.3986 24.4261 44.642 24.4261 44.9296V74.6231H24.415Z" stroke="white" stroke-width="4.28422" stroke-miterlimit="10"/>
<path d="M24.4153 44.3875L10 29.4965" stroke="white" stroke-width="4.28422" stroke-miterlimit="10"/>
<path d="M72.4736 44.5866L86.9 29.6846" stroke="white" stroke-width="4.28422" stroke-miterlimit="10"/>
<path d="M33.0002 34.5634L27.2363 25.912" stroke="white" stroke-width="4.28422" stroke-miterlimit="10"/>
<path d="M40.1582 21L43.1785 35.2715" stroke="white" stroke-width="4.28422" stroke-miterlimit="10"/>
<path d="M58.2022 64.4782C61.1412 64.4782 63.5236 62.0957 63.5236 59.1568C63.5236 56.2179 61.1412 53.8354 58.2022 53.8354C55.2633 53.8354 52.8809 56.2179 52.8809 59.1568C52.8809 62.0957 55.2633 64.4782 58.2022 64.4782Z" stroke="white" stroke-width="4.28422" stroke-miterlimit="10"/>
<path d="M38.9298 64.622C41.8687 64.622 44.2512 62.2396 44.2512 59.3007C44.2512 56.3617 41.8687 53.9793 38.9298 53.9793C35.9909 53.9793 33.6084 56.3617 33.6084 59.3007C33.6084 62.2396 35.9909 64.622 38.9298 64.622Z" stroke="white" stroke-width="4.28422" stroke-miterlimit="10"/>
<path d="M55.6576 21.0553L52.6484 35.3268" stroke="white" stroke-width="4.28422" stroke-miterlimit="10"/>
<path d="M60.957 34.5966L66.7209 25.9453" stroke="white" stroke-width="4.28422" stroke-miterlimit="10"/>
</svg>
