<svg width="21" height="18" viewBox="0 0 21 18" fill="none" xmlns="http://www.w3.org/2000/svg">
<path d="M0 0.84375C0 0.376172 0.393441 0 0.882483 0H2.55553C3.36447 0 4.08149 0.45 4.41609 1.125H19.5286C20.4957 1.125 21.2017 2.00391 20.948 2.89688L19.4404 8.25117C19.1278 9.35508 18.0799 10.125 16.8849 10.125H6.27666L6.47522 11.127C6.55612 11.5242 6.92014 11.8125 7.343 11.8125H17.9438C18.4329 11.8125 18.8263 12.1887 18.8263 12.6562C18.8263 13.1238 18.4329 13.5 17.9438 13.5H7.343C6.07075 13.5 4.97868 12.6352 4.74335 11.4434L2.84601 1.91602C2.82027 1.78242 2.69893 1.6875 2.55553 1.6875H0.882483C0.393441 1.6875 0 1.31133 0 0.84375ZM4.70658 16.3125C4.70658 16.0909 4.75223 15.8715 4.84093 15.6667C4.92963 15.462 5.05963 15.276 5.22353 15.1193C5.38742 14.9626 5.58199 14.8383 5.79612 14.7535C6.01026 14.6686 6.23977 14.625 6.47155 14.625C6.70332 14.625 6.93283 14.6686 7.14697 14.7535C7.3611 14.8383 7.55567 14.9626 7.71957 15.1193C7.88346 15.276 8.01346 15.462 8.10216 15.6667C8.19086 15.8715 8.23651 16.0909 8.23651 16.3125C8.23651 16.5341 8.19086 16.7535 8.10216 16.9583C8.01346 17.163 7.88346 17.349 7.71957 17.5057C7.55567 17.6624 7.3611 17.7867 7.14697 17.8715C6.93283 17.9564 6.70332 18 6.47155 18C6.23977 18 6.01026 17.9564 5.79612 17.8715C5.58199 17.7867 5.38742 17.6624 5.22353 17.5057C5.05963 17.349 4.92963 17.163 4.84093 16.9583C4.75223 16.7535 4.70658 16.5341 4.70658 16.3125ZM17.0613 14.625C17.5294 14.625 17.9784 14.8028 18.3094 15.1193C18.6404 15.4357 18.8263 15.8649 18.8263 16.3125C18.8263 16.7601 18.6404 17.1893 18.3094 17.5057C17.9784 17.8222 17.5294 18 17.0613 18C16.5933 18 16.1443 17.8222 15.8133 17.5057C15.4823 17.1893 15.2964 16.7601 15.2964 16.3125C15.2964 15.8649 15.4823 15.4357 15.8133 15.1193C16.1443 14.8028 16.5933 14.625 17.0613 14.625Z" fill="#A0A0A0"/>
</svg>
