<svg width="18" height="18" viewBox="0 0 18 18" fill="none" xmlns="http://www.w3.org/2000/svg">
<path d="M18 2.7C18 4.19117 16.7912 5.4 15.3 5.4C13.8088 5.4 12.6 4.19117 12.6 2.7C12.6 1.20884 13.8088 0 15.3 0C16.7912 0 18 1.20884 18 2.7Z" fill="white"/>
<path d="M11.9112 0.481284C10.9981 0.16929 10.0188 0 9 0C4.02943 0 0 4.02943 0 9C0 10.4397 0.338058 11.8004 0.939114 13.0072C1.09885 13.3279 1.15201 13.6945 1.05941 14.0405L0.523359 16.044C0.290655 16.9137 1.08631 17.7093 1.95601 17.4767L3.95944 16.9406C4.30554 16.848 4.67209 16.9012 4.99278 17.0608C6.19952 17.662 7.56027 18 9 18C13.9705 18 18 13.9705 18 9C18 7.9812 17.8307 7.00188 17.5187 6.08873C16.8815 6.50683 16.1191 6.75 15.3 6.75C13.0632 6.75 11.25 4.93675 11.25 2.7C11.25 1.88088 11.4932 1.11856 11.9112 0.481284Z" fill="white"/>
</svg>
