<svg width="110" height="22" viewBox="0 0 110 22" fill="none" xmlns="http://www.w3.org/2000/svg">
<g clip-path="url(#clip0_22_1660)">
<path d="M32.6578 16.8098C34.9071 16.8098 36.3207 15.433 36.7066 14.1813L34.8751 13.4617C34.602 14.4004 33.7986 15.042 32.7062 15.042C31.3406 15.042 30.2805 14.0406 30.2805 12.5074C30.2805 10.9743 31.3406 9.97286 32.6902 9.97286C33.7827 9.97286 34.5536 10.6145 34.8267 11.5688L36.6582 10.8648C36.2727 9.5819 34.8587 8.20507 32.6578 8.20507C30.1038 8.20507 28.2399 10.0824 28.2399 12.523C28.2399 14.9637 30.1357 16.8098 32.6578 16.8098ZM39.8421 9.30049V8.3774H37.9147V16.6219H39.9549V11.9286C39.9549 10.818 40.8866 10.0512 42.3645 10.0512V8.18949C41.304 8.18949 40.4203 8.64324 39.8421 9.30049ZM49.3787 8.3774L46.9845 15.0264L44.8001 8.3774H42.695L45.6833 16.6219H46.326L45.1695 19.4223H47.1778L48.2698 16.6219L51.4992 8.3774H49.3787ZM57.2442 8.18949C56.0393 8.18949 55.0597 8.65882 54.4006 9.45678V8.3774H52.5052V19.4223H54.5454V15.746C55.188 16.4184 56.0877 16.8094 57.1962 16.8094C59.6219 16.8094 61.3894 14.9637 61.3894 12.5074C61.3894 10.0357 59.6703 8.18949 57.2442 8.18949ZM56.9231 15.0576C55.4611 15.0576 54.465 14.0094 54.465 12.5074C54.465 11.0055 55.4611 9.95728 56.9231 9.95728C58.3207 9.95728 59.3487 11.0367 59.3487 12.5074C59.3487 13.9622 58.3207 15.0576 56.9231 15.0576ZM66.431 16.6219H67.7647V14.8853H66.833C65.9172 14.8853 65.4189 14.3692 65.4189 13.4149V10.0829H67.7003V8.3774H65.4833V6.23424H63.4911V7.53269C63.4911 8.09553 63.218 8.3774 62.6558 8.3774H61.8848V10.0824H63.3628V13.634C63.3628 15.449 64.4069 16.6219 66.431 16.6219ZM72.8392 16.8098C75.4741 16.8098 77.3539 14.9637 77.3539 12.5074C77.3539 10.0357 75.4741 8.18994 72.8392 8.18994C70.1884 8.18994 68.325 10.0357 68.325 12.5074C68.325 14.9637 70.1884 16.8098 72.8392 16.8098ZM72.8552 15.042C71.3773 15.042 70.3652 13.9782 70.3652 12.5074C70.3652 11.0211 71.3773 9.97286 72.8552 9.97286C74.3172 9.97286 75.2973 11.0211 75.2973 12.4919C75.2973 13.9782 74.3012 15.042 72.8552 15.042ZM88.84 8.18949C87.4105 8.18949 86.4463 8.76836 85.9805 9.53515C85.4986 8.6744 84.6469 8.18949 83.2977 8.18949C82.1568 8.18949 81.2735 8.65882 80.7433 9.2849V8.3774H78.8154V16.6063H80.8556V11.6155C80.8716 10.8336 81.5142 9.97286 82.6711 9.95728C83.8115 9.95728 84.4381 10.7869 84.4381 11.8662V16.6063H86.4783V11.6155C86.4948 10.8492 87.1209 9.97286 88.2938 9.95728C89.4347 9.95728 90.0448 10.802 90.0448 11.8662V16.6063H92.0855V11.5064C92.0855 9.6447 90.9446 8.18949 88.84 8.18949ZM99.5796 8.3774V13.3677C99.5796 14.2752 98.8406 15.0264 97.6997 15.042C96.5593 15.042 95.8363 14.3064 95.8363 13.2426V8.3774H93.7961V13.4929C93.7961 15.4018 94.9525 16.8098 97.1055 16.8098C98.198 16.8098 99.1137 16.3561 99.7079 15.7144V16.6219H101.62V8.3774H99.5796ZM106.498 16.8098C108.618 16.8098 110 15.8395 110 14.1973C110 11.1778 105.357 12.0381 105.357 10.5362C105.357 10.0357 105.759 9.72261 106.514 9.72261C107.221 9.72261 107.719 10.0201 107.944 10.6457L109.727 9.97286C109.373 8.84674 108.185 8.18994 106.546 8.18994C104.554 8.18994 103.268 9.12815 103.268 10.6301C103.268 13.4617 107.911 12.7109 107.911 14.338C107.911 14.9169 107.398 15.2455 106.578 15.2455C105.55 15.2455 104.891 14.7918 104.65 14.025L102.867 14.6978C103.333 16.0902 104.666 16.8098 106.498 16.8098ZM20.4651 5.19978L11.8823 0.374445C11.6909 0.267506 11.4742 0.211243 11.2536 0.211243C11.033 0.211243 10.8162 0.267506 10.6248 0.374445L2.04202 5.19978C1.85078 5.30743 1.69191 5.46221 1.58136 5.6486C1.4708 5.83498 1.41243 6.04643 1.41211 6.26174V15.9119C1.41211 16.3478 1.65326 16.7539 2.04202 16.9739L10.6248 21.7992C10.8164 21.9068 11.0337 21.963 11.2548 21.9624C11.4762 21.9624 11.6933 21.9051 11.8847 21.7992L20.4675 16.9739C20.6587 16.8663 20.8175 16.7116 20.928 16.5253C21.0386 16.339 21.097 16.1276 21.0974 15.9124V6.26174C21.0974 5.82632 20.8563 5.41978 20.4675 5.19978H20.4651ZM11.448 10.4885C11.3888 10.5216 11.3218 10.5391 11.2536 10.5391C11.1854 10.5391 11.1183 10.5216 11.0592 10.4885L2.71519 5.7979L11.0592 1.10915C11.1186 1.07688 11.1856 1.05995 11.2536 1.05995C11.3216 1.05995 11.3885 1.07688 11.448 1.10915L19.792 5.79882L11.448 10.4885ZM10.6248 11.22C10.6856 11.2542 10.7508 11.2832 10.8204 11.3071V20.9275L2.47638 16.2401C2.41724 16.2069 2.36806 16.1592 2.33375 16.1017C2.29944 16.0442 2.28119 15.9789 2.28083 15.9124V6.53032L10.6248 11.22Z" fill="white"/>
</g>
<defs>
<clipPath id="clip0_22_1660">
<rect width="110" height="22" fill="white"/>
</clipPath>
</defs>
</svg>
