<svg width="13" height="13" viewBox="0 0 13 13" fill="none" xmlns="http://www.w3.org/2000/svg">
<path d="M12.0989 0.421382C11.537 -0.140461 10.6288 -0.140461 10.067 0.421382L9.29479 1.19103L11.8064 3.70265L12.5786 2.93044C13.1405 2.36859 13.1405 1.46041 12.5786 0.898564L12.0989 0.421382ZM4.42291 6.06547C4.26642 6.22196 4.14584 6.41438 4.07657 6.62731L3.31718 8.90547C3.24278 9.1261 3.30179 9.36983 3.46598 9.53658C3.63017 9.70334 3.8739 9.75978 4.09709 9.68538L6.37525 8.926C6.58562 8.85673 6.77804 8.73615 6.9371 8.57965L11.2292 4.28502L8.71498 1.77083L4.42291 6.06547ZM2.46287 1.50659C1.10316 1.50659 0 2.60975 0 3.96946V10.5371C0 11.8968 1.10316 13 2.46287 13H9.03054C10.3903 13 11.4934 11.8968 11.4934 10.5371V8.07425C11.4934 7.62016 11.1265 7.25329 10.6725 7.25329C10.2184 7.25329 9.8515 7.62016 9.8515 8.07425V10.5371C9.8515 10.9912 9.48463 11.3581 9.03054 11.3581H2.46287C2.00878 11.3581 1.64192 10.9912 1.64192 10.5371V3.96946C1.64192 3.51537 2.00878 3.1485 2.46287 3.1485H4.92575C5.37984 3.1485 5.74671 2.78164 5.74671 2.32754C5.74671 1.87345 5.37984 1.50659 4.92575 1.50659H2.46287Z" fill="#FFC148"/>
</svg>
