<svg width="80" height="27" viewBox="0 0 80 27" fill="none" xmlns="http://www.w3.org/2000/svg">
<path d="M40.017 15.3746H30.4115C30.5476 16.2286 30.9286 16.9174 31.5272 17.4133C32.1258 17.9092 32.8877 18.1847 33.8401 18.1847C34.9558 18.1847 35.9082 17.799 36.7245 17.0001L39.2279 18.1847C38.602 19.0939 37.8401 19.7551 36.9694 20.196C36.0987 20.6368 35.0647 20.8572 33.8401 20.8572C31.9626 20.8572 30.466 20.2511 29.2687 19.0663C28.0987 17.8817 27.5 16.3939 27.5 14.5756C27.5 12.7296 28.0987 11.2144 29.2687 10.0021C30.4388 8.78984 31.9082 8.18372 33.6769 8.18372C35.5544 8.18372 37.0782 8.78984 38.2483 10.0021C39.4184 11.2144 40.017 12.8123 40.017 14.8235V15.3746ZM37.051 13.0051C36.8606 12.3439 36.4524 11.7929 35.881 11.3796C35.3095 10.9663 34.6292 10.746 33.8673 10.746C33.0238 10.746 32.3163 10.9939 31.6632 11.4623C31.2823 11.7653 30.9013 12.2889 30.5749 13.0327H37.051V13.0051Z" fill="white"/>
<path d="M42.0474 8.48677H45.0406V9.72655C45.7208 9.148 46.3195 8.73473 46.8909 8.51432C47.4351 8.29391 48.0065 8.18372 48.5779 8.18372C49.748 8.18372 50.7549 8.59698 51.5712 9.42351C52.2515 10.1398 52.6052 11.1868 52.6052 12.5644V20.5266H49.6664V15.2643C49.6664 13.8317 49.612 12.8674 49.4759 12.399C49.3398 11.9306 49.1222 11.5725 48.8229 11.3246C48.4963 11.0766 48.1154 10.9663 47.6528 10.9663C47.0541 10.9663 46.5372 11.1592 46.1017 11.5725C45.6664 11.9858 45.3671 12.5368 45.2038 13.2806C45.1222 13.6663 45.0677 14.4653 45.0677 15.7327V20.5541H42.0746V8.48677H42.0474Z" fill="white"/>
<path d="M61.0952 8.18372C62.2108 8.18372 63.2721 8.45922 64.2517 9.03779C65.2312 9.61636 66.0203 10.3878 66.5645 11.3521C67.1088 12.3163 67.4082 13.3908 67.4082 14.5204C67.4082 15.6501 67.136 16.7246 66.5645 17.7163C66.0203 18.7082 65.2584 19.4796 64.2788 20.0306C63.2993 20.5817 62.2653 20.8572 61.0952 20.8572C59.3809 20.8572 57.9387 20.2511 56.7143 19.0113C55.5169 17.7715 54.8911 16.2837 54.8911 14.5204C54.8911 12.647 55.5714 11.0766 56.932 9.80919C58.1564 8.70718 59.5442 8.18372 61.0952 8.18372ZM61.1224 11.0215C60.1972 11.0215 59.4353 11.3521 58.8095 12.0133C58.1836 12.6746 57.8843 13.5011 57.8843 14.5204C57.8843 15.5674 58.1836 16.4215 58.8095 17.0551C59.4082 17.7163 60.1972 18.0194 61.1224 18.0194C62.0476 18.0194 62.8367 17.6889 63.4625 17.0275C64.0883 16.3663 64.3877 15.5123 64.3877 14.4929C64.3877 13.446 64.0883 12.6194 63.4625 11.9858C62.8639 11.352 62.0748 11.0215 61.1224 11.0215Z" fill="white"/>
<path d="M70.1835 4.05066H73.1766V8.48637H74.9454V11.0762H73.1766V20.5262H70.1835V11.0762H68.6597V8.48637H70.1835V4.05066Z" fill="white"/>
<path d="M78.184 17.3859C78.6466 17.3859 79.0548 17.5511 79.4085 17.8818C79.7351 18.2124 79.8983 18.6256 79.8983 19.094C79.8983 19.5624 79.7351 19.9756 79.4085 20.3338C79.082 20.692 78.6738 20.8297 78.184 20.8297C77.7214 20.8297 77.3133 20.6644 76.9595 20.3338C76.633 20.0032 76.4697 19.5899 76.4697 19.094C76.4697 18.5981 76.633 18.2124 76.9595 17.8818C77.3133 17.5511 77.6942 17.3859 78.184 17.3859Z" fill="white"/>
<path d="M6.76179 24.7958V17.5499H0.176758L8.99309 2.25909V9.53257H15.4421L6.76179 24.7958Z" fill="#FFDF54"/>
</svg>
