<svg width="19" height="18" viewBox="0 0 19 18" fill="none" xmlns="http://www.w3.org/2000/svg">
<path d="M8.22468 17.008L8.13362 16.9161L1.75202 10.4108C0.633789 9.27126 0 7.67193 0 5.99663V5.86468C0 3.04986 1.82123 0.634868 4.34182 0.107089C5.77695 -0.196784 7.24486 0.167063 8.41409 1.07069C8.74191 1.32658 9.04788 1.62246 9.32471 1.96231C9.47769 1.77039 9.6416 1.59447 9.81644 1.43054C9.95121 1.30259 10.0896 1.18264 10.2353 1.07069C11.4046 0.167063 12.8725 -0.196784 14.3076 0.10309C16.8282 0.63087 18.6494 3.04986 18.6494 5.86468V5.99663C18.6494 7.67193 18.0156 9.27126 16.8974 10.4108L10.5158 16.9161L10.4247 17.008C10.126 17.3119 9.73266 17.4838 9.32471 17.4838C8.91675 17.4838 8.52336 17.3159 8.22468 17.008ZM8.70913 4.08543C8.69456 4.07343 8.68363 4.05744 8.67271 4.04144L8.02435 3.24178L8.0207 3.23778C7.1793 2.20221 5.90808 1.73041 4.66964 1.9903C2.97225 2.34615 1.74838 3.96947 1.74838 5.86468V5.99663C1.74838 7.13615 2.18184 8.22769 2.94311 9.00337L9.32471 15.5087L15.7063 9.00337C16.4676 8.22769 16.901 7.13615 16.901 5.99663V5.86468C16.901 3.97347 15.6772 2.34615 13.9834 1.9903C12.745 1.73041 11.4701 2.20621 10.6324 3.23778C10.6324 3.23778 10.6324 3.23778 10.6287 3.24178C10.6251 3.24578 10.6287 3.24178 10.6251 3.24578L9.97671 4.04544C9.96578 4.06144 9.95121 4.07343 9.94028 4.08942C9.77637 4.26935 9.55418 4.36931 9.32471 4.36931C9.09523 4.36931 8.87304 4.26935 8.70913 4.08942V4.08543Z" fill="#FFC148"/>
</svg>
