<svg width="164" height="52" viewBox="0 0 164 52" fill="none" xmlns="http://www.w3.org/2000/svg">
<path d="M67.3846 38.2269C69.1795 39.0577 71.1343 39.4846 73.1115 39.4776C76.6359 39.4881 80.025 38.1181 82.5554 35.6599C82.8163 35.4121 83.0246 35.1143 83.1682 34.784C83.3116 34.4538 83.3873 34.0981 83.3905 33.738V26.5997C83.3871 26.2461 83.3141 25.8967 83.1759 25.5715C83.0376 25.2462 82.8367 24.9514 82.5846 24.7039C82.3326 24.4564 82.0344 24.261 81.7069 24.129C81.3796 23.9971 81.0295 23.9311 80.6766 23.9348H74.0047C73.2921 23.9278 72.6059 24.2046 72.097 24.7044C71.5881 25.2041 71.2981 25.8858 71.2909 26.5997C71.2981 27.3136 71.5882 27.9955 72.097 28.4952C72.606 28.995 73.2921 29.2716 74.0047 29.2646H77.9627V32.5323C76.9571 33.2822 75.793 33.7904 74.5602 34.0177C73.3274 34.2451 72.0589 34.1855 70.8527 33.8436C69.7928 33.5555 68.8082 33.0395 67.9674 32.3315C66.8414 31.4168 65.9909 30.2069 65.5109 28.8364C65.0309 27.4659 64.9402 25.9887 65.2488 24.5696C65.5574 23.1505 66.2532 21.8452 67.2587 20.799C68.2643 19.7529 69.54 19.007 70.9438 18.6446C73.0477 18.0799 75.2892 18.3731 77.1777 19.4602C77.6934 19.7527 78.2903 19.8686 78.8776 19.7899C79.465 19.7111 80.0105 19.4421 80.4311 19.024C80.7248 18.7306 80.9459 18.3725 81.0767 17.9782C81.2075 17.5839 81.2444 17.1644 81.1844 16.7533C81.1243 16.3422 80.9692 15.9509 80.7312 15.6107C80.4932 15.2704 80.179 14.9907 79.8138 14.7938C77.8535 13.7094 75.6636 13.1086 73.4253 13.0412C71.1871 12.9737 68.9652 13.4419 66.9436 14.4066C64.8978 15.3128 63.1569 16.7918 61.93 18.6657C60.3128 21.0587 59.5156 23.9133 59.6583 26.7997C59.8012 29.686 60.8763 32.4476 62.7217 34.6685C63.998 36.1816 65.5896 37.3961 67.3846 38.2269ZM93.7712 38.2269C95.5661 39.0577 97.5209 39.4846 99.4981 39.4776C103.023 39.4881 106.412 38.1181 108.942 35.6599C109.203 35.4122 109.411 35.1143 109.555 34.784C109.698 34.4538 109.774 34.0981 109.777 33.738V26.5997C109.774 26.2461 109.701 25.8967 109.562 25.5715C109.424 25.2462 109.223 24.9514 108.971 24.7039C108.719 24.4564 108.421 24.261 108.094 24.129C107.766 23.9971 107.416 23.9311 107.063 23.9348H100.391C99.6787 23.9278 98.9925 24.2046 98.4836 24.7044C97.9747 25.204 97.6847 25.8858 97.6773 26.5997C97.6847 27.3136 97.9747 27.9954 98.4836 28.4952C98.9925 28.9949 99.6787 29.2717 100.391 29.2646H104.349V32.5323C103.344 33.2822 102.18 33.7904 100.947 34.0177C99.714 34.2451 98.4455 34.1855 97.2393 33.8436C96.1794 33.5555 95.1948 33.0395 94.354 32.3315C93.228 31.4168 92.3776 30.2069 91.8975 28.8364C91.4175 27.4659 91.3268 25.9887 91.6354 24.5696C91.944 23.1505 92.6398 21.8451 93.6453 20.799C94.6509 19.7529 95.9267 19.007 97.3304 18.6446C99.4343 18.0799 101.676 18.3731 103.564 19.4602C104.08 19.7527 104.677 19.8686 105.264 19.7899C105.852 19.7111 106.397 19.4421 106.818 19.024C107.111 18.7306 107.333 18.3725 107.463 17.9782C107.594 17.5839 107.631 17.1644 107.571 16.7533C107.511 16.3422 107.356 15.9509 107.118 15.6107C106.88 15.2704 106.566 14.9907 106.2 14.7938C104.24 13.7094 102.05 13.1086 99.812 13.0412C97.5737 12.9737 95.3518 13.4419 93.3302 14.4066C91.2844 15.3128 89.5435 16.7918 88.3166 18.6657C86.6994 21.0587 85.9022 23.9133 86.045 26.7997C86.1878 29.686 87.2629 32.4476 89.1083 34.6685C90.3846 36.1816 91.9762 37.3961 93.7712 38.2269Z" fill="#6DC326"/>
<path d="M161.238 12.9206C162.696 12.9206 163.877 14.1043 163.877 15.5643V36.7146C163.877 38.1747 162.696 39.3584 161.238 39.3584C159.782 39.3584 158.6 38.1747 158.6 36.7146V15.5643C158.6 14.1043 159.782 12.9206 161.238 12.9206ZM123.347 39.3583H122.968C120.406 39.107 117.891 38.5075 115.49 37.5763C115.155 37.4555 114.846 37.2678 114.585 37.0246C114.323 36.7814 114.113 36.4877 113.967 36.161C113.822 35.8344 113.744 35.4817 113.738 35.124C113.732 34.7664 113.798 34.4112 113.932 34.0799C114.18 33.4529 114.659 32.9461 115.271 32.6657C115.883 32.3853 116.58 32.353 117.215 32.5757C119.1 33.3131 121.069 33.8127 123.078 34.0628C124.553 34.1249 127.988 33.8897 128.274 31.3199C128.376 30.4369 127.69 29.7335 123.976 28.922L123.847 28.894C123.614 28.8429 123.397 28.796 123.208 28.7501L122.768 28.6457L122.766 28.645C120.232 28.0511 114.302 26.661 114.107 21.5074C114.002 18.6918 115.004 13.8406 122.911 13.0078C125.435 12.8106 127.972 13.1221 130.373 13.9238C130.775 14.0546 131.145 14.2712 131.456 14.5589C131.767 14.8467 132.011 15.1985 132.174 15.5902C132.335 15.9819 132.41 16.4043 132.393 16.8279C132.376 17.2515 132.269 17.6665 132.076 18.044L132.057 18.0784C131.816 18.5561 131.409 18.9291 130.913 19.1275C130.416 19.3258 129.865 19.336 129.361 19.1559C129.207 19.1017 129.044 19.0474 128.876 18.9932C127.135 18.3909 125.291 18.1465 123.455 18.2742C119.241 18.7197 119.3 20.2741 119.339 21.3066C119.367 22.0481 120.923 22.7845 123.949 23.4917L124.424 23.604C124.573 23.64 124.738 23.6758 124.917 23.7148L125.08 23.7502C127.571 24.2915 134.178 25.7273 133.477 31.9226C132.963 36.5281 129.095 39.3583 123.347 39.3583Z" fill="#F3F5FB"/>
<path fill-rule="evenodd" clip-rule="evenodd" d="M146.126 39.3594C143.763 39.3603 141.473 38.5415 139.645 37.0422C138.599 36.1936 137.757 35.1208 137.18 33.9028C136.442 32.3976 136.095 30.7302 136.169 29.0545C136.244 27.379 136.74 25.7495 137.611 24.317C138.482 22.8843 139.699 21.695 141.151 20.859C142.601 20.0229 144.239 19.5671 145.914 19.5338C148.17 19.5267 150.365 20.2719 152.152 21.652C153.94 23.0322 155.219 24.9689 155.787 27.1571C155.87 27.556 155.924 27.9602 155.949 28.3667C155.988 28.8346 155.93 29.3056 155.777 29.7498C155.625 30.1938 155.382 30.6013 155.065 30.9465C154.747 31.2915 154.361 31.5668 153.932 31.7546C153.502 31.9426 153.038 32.0387 152.569 32.0375H142.152C142.497 32.5606 142.942 33.0105 143.461 33.3613C143.98 33.7122 144.562 33.9573 145.176 34.0825C146.316 34.3123 147.501 34.1246 148.516 33.5537C148.949 33.2864 149.454 33.158 149.962 33.1854C150.471 33.2128 150.96 33.3946 151.362 33.707L151.608 33.9081C151.911 34.1531 152.152 34.4674 152.31 34.8249C152.468 35.1824 152.538 35.5727 152.515 35.9629C152.491 36.3531 152.375 36.732 152.175 37.0679C151.975 37.4038 151.698 37.6868 151.367 37.8934C149.787 38.8513 147.974 39.3582 146.126 39.3594ZM142.171 26.8531H150.137C149.721 26.2298 149.167 25.7125 148.517 25.3426C147.866 24.9726 147.139 24.7603 146.393 24.7227C145.646 24.685 144.901 24.8231 144.216 25.1257C143.533 25.4284 142.929 25.8874 142.454 26.4659C142.353 26.5898 142.258 26.7191 142.171 26.8531Z" fill="#F3F5FB"/>
<path d="M41.1459 41.5818L27.5472 49.2937C26.3173 49.9793 24.9232 50.3183 23.5146 50.2745C22.1059 50.2306 20.7357 49.8056 19.5512 49.0449L6.13373 41.1079C4.87816 40.3609 3.83806 39.3029 3.11461 38.0367C2.39115 36.7706 2.00899 35.3393 2.00527 33.8824L2.00525 18.3363C1.95343 16.9332 2.28601 15.5424 2.96737 14.3132C3.64872 13.0842 4.65309 12.0631 5.87276 11.3596L21.2847 2.61939C22.2105 2.07425 23.3026 1.87999 24.3605 2.07232C25.4186 2.26466 26.3714 2.83059 27.0444 3.66636C27.3816 4.13513 27.6166 4.66905 27.7343 5.23369C27.8521 5.79832 27.8501 6.38126 27.7283 6.94504C27.6063 7.50923 27.3675 8.04148 27.0273 8.50737C26.6867 8.97376 26.2521 9.36404 25.7513 9.65314L11.8126 17.5578C11.3406 17.8273 10.9486 18.2164 10.6766 18.6858C10.4047 19.1552 10.2623 19.6879 10.264 20.2299L10.2571 32.1924C10.2575 32.7389 10.4003 33.276 10.6718 33.7509C10.9431 34.226 11.3337 34.6226 11.8052 34.9019L22.1334 41.0034C22.6002 41.2815 23.1326 41.4315 23.6766 41.4381C24.2206 41.4448 24.7566 41.3078 25.2301 41.0409L35.5551 35.1855C36.0272 34.916 36.4193 34.5267 36.6915 34.0574C36.9637 33.588 37.1062 33.0551 37.1046 32.5131L37.1062 23.5432L27.9787 28.7195C27.0708 29.249 25.9981 29.4245 24.9679 29.212C23.9375 28.9996 23.0227 28.4145 22.4003 27.5696C22.0633 27.1007 21.8283 26.5669 21.7108 26.0023C21.593 25.4378 21.5953 24.8549 21.7169 24.2912C21.8387 23.7274 22.0775 23.1951 22.4178 22.7287C22.7582 22.2624 23.1927 21.8721 23.6934 21.5829L39.0482 12.875C39.6828 12.4921 40.4085 12.2852 41.1504 12.2757C41.8921 12.266 42.6229 12.4541 43.2674 12.8204C43.9118 13.1867 44.4461 13.7179 44.8152 14.3591C45.1842 15.0001 45.3746 15.728 45.3665 16.4669L45.3633 34.4067C45.3491 35.865 44.9526 37.2945 44.2127 38.5532C43.4729 39.8118 42.4156 40.8559 41.1459 41.5818Z" fill="#5BC113" fill-opacity="0.2" stroke="#5BC014" stroke-width="2.6"/>
</svg>
