<svg width="21" height="20" viewBox="0 0 21 20" fill="none" xmlns="http://www.w3.org/2000/svg">
<path d="M11.7387 18.9693L11.8412 18.8668L19.0271 11.6113C20.2863 10.3404 21 8.55663 21 6.68814V6.54098C21 3.40156 18.9492 0.708079 16.1109 0.119438C14.4949 -0.219477 12.842 0.186329 11.5254 1.19415C11.1562 1.47956 10.8117 1.80955 10.5 2.1886C10.3277 1.97455 10.1432 1.77834 9.94629 1.5955C9.79453 1.4528 9.63867 1.31902 9.47461 1.19415C8.15801 0.186329 6.50508 -0.219477 4.88906 0.114978C2.05078 0.703619 0 3.40156 0 6.54098V6.68814C0 8.55663 0.713673 10.3404 1.97285 11.6113L9.15879 18.8668L9.26133 18.9693C9.59766 19.3082 10.0406 19.5 10.5 19.5C10.9594 19.5 11.4023 19.3127 11.7387 18.9693ZM11.1932 4.55654C11.2096 4.54316 11.2219 4.52533 11.2342 4.50749L11.9643 3.61561L11.9684 3.61115C12.9158 2.45616 14.3473 1.92995 15.7418 2.21982C17.6531 2.6167 19.0312 4.42722 19.0312 6.54098V6.68814C19.0312 7.95907 18.5432 9.17648 17.6859 10.0416L10.5 17.2971L3.31406 10.0416C2.45683 9.17648 1.96875 7.95907 1.96875 6.68814V6.54098C1.96875 4.43168 3.34688 2.6167 5.2541 2.21982C6.64863 1.92995 8.08418 2.46062 9.02754 3.61115C9.02754 3.61115 9.02754 3.61115 9.03164 3.61561C9.03574 3.62007 9.03164 3.61561 9.03574 3.62007L9.76582 4.51195C9.77812 4.52979 9.79453 4.54316 9.80684 4.561C9.99141 4.76168 10.2416 4.87316 10.5 4.87316C10.7584 4.87316 11.0086 4.76168 11.1932 4.561V4.55654Z" fill="#858585"/>
</svg>
