<svg width="21" height="21" viewBox="0 0 21 21" fill="none" xmlns="http://www.w3.org/2000/svg">
<path d="M10.614 11.2409C10.5475 11.2314 10.462 11.2314 10.386 11.2409C8.71395 11.1839 7.38391 9.81594 7.38391 8.13441C7.38391 6.4149 8.77095 5.01839 10.5 5.01839C12.2195 5.01839 13.616 6.4149 13.616 8.13441C13.6065 9.81594 12.286 11.1839 10.614 11.2409Z" fill="#535353" stroke="#535353" stroke-width="1.72497" stroke-linecap="round" stroke-linejoin="round"/>
<path d="M16.903 17.5111C15.212 19.0596 12.97 20.0001 10.5 20.0001C8.02995 20.0001 5.78794 19.0596 4.09692 17.5111C4.19192 16.6181 4.76193 15.7441 5.77844 15.0601C8.38145 13.3311 12.6375 13.3311 15.2215 15.0601C16.238 15.7441 16.808 16.6181 16.903 17.5111Z" fill="#535353" stroke="#535353" stroke-width="1.72497" stroke-linecap="round" stroke-linejoin="round"/>
<path d="M10.5001 20.0001C15.7468 20.0001 20.0001 15.7468 20.0001 10.5001C20.0001 5.25332 15.7468 1 10.5001 1C5.25332 1 1 5.25332 1 10.5001C1 15.7468 5.25332 20.0001 10.5001 20.0001Z" stroke="#535353" stroke-width="1.72497" stroke-linecap="round" stroke-linejoin="round"/>
</svg>
