<svg width="84" height="84" viewBox="0 0 84 84" fill="none" xmlns="http://www.w3.org/2000/svg">
<g clip-path="url(#clip0_704_155)">
<path fill-rule="evenodd" clip-rule="evenodd" d="M75.1357 53.9658L55.2406 55.2921L61.8723 61.9238C50.9008 72.8953 33.0536 72.8953 22.0821 61.9238C15.3788 55.2205 12.7924 45.9494 14.2832 37.2433L6.64088 37.7552C5.38351 48.2492 8.7418 59.1942 16.7768 67.2292C30.6715 81.1239 53.2829 81.1239 67.1777 67.2292L73.8094 73.8609L75.1357 53.9658ZM28.7138 28.7653L22.0821 22.1336C33.0536 11.1621 50.9008 11.1621 61.8723 22.1336C68.5756 28.8369 71.162 38.108 69.6738 46.8115L77.3136 46.3022C78.5709 35.8082 75.2126 24.8632 67.1777 16.8282C53.2829 2.93351 30.6715 2.93351 16.7768 16.8282L10.1451 10.1965L8.81873 30.0916L28.7138 28.7653Z" fill="white"/>
</g>
<defs>
<clipPath id="clip0_704_155">
<rect width="84" height="84" fill="white"/>
</clipPath>
</defs>
</svg>
