<svg width="164" height="61" viewBox="0 0 164 61" fill="none" xmlns="http://www.w3.org/2000/svg">
<path d="M68.3435 26.8745L70.5315 24.5301C71.636 25.4887 72.7717 25.968 73.9386 25.968C74.2721 25.968 74.5742 25.9367 74.8451 25.8742C75.1369 25.7908 75.3765 25.6658 75.564 25.4991C75.8141 25.2699 75.96 24.999 76.0017 24.6864C76.0433 24.353 76.0433 24.0821 76.0017 23.8737C75.9183 23.4986 75.6578 23.2069 75.2202 22.9985C74.8034 22.7692 74.2825 22.5713 73.6573 22.4046C73.053 22.217 72.4278 21.9878 71.7818 21.7169C71.1358 21.446 70.5628 21.0813 70.0626 20.6229C69.2499 19.8518 68.7811 19.0391 68.656 18.1847C68.5518 17.3095 68.7186 16.4968 69.1562 15.7466C69.6146 14.9964 70.2815 14.3921 71.1567 13.9337C72.0319 13.4544 73.053 13.2147 74.22 13.2147C75.3244 13.2147 76.3142 13.4127 77.1895 13.8086C78.0647 14.1837 78.7628 14.6734 79.2837 15.2778L76.9081 17.4033C76.5747 17.0907 76.1579 16.8615 75.6578 16.7156C75.1785 16.5489 74.7097 16.4656 74.2512 16.4656C73.7719 16.4656 73.3552 16.5697 73.0009 16.7781C72.6466 16.9657 72.4695 17.2991 72.4695 17.7784C72.4695 18.1535 72.6154 18.4556 72.9071 18.6849C73.1989 18.9141 73.574 19.1121 74.0324 19.2788C74.5117 19.4455 75.0222 19.6226 75.564 19.8102C76.1267 19.9769 76.6581 20.1957 77.1582 20.4666C77.8042 20.8 78.346 21.2793 78.7836 21.9044C79.2212 22.5088 79.44 23.3006 79.44 24.28C79.44 25.3428 79.1796 26.2389 78.6586 26.9682C78.1585 27.6976 77.4916 28.2602 76.6581 28.6562C75.8245 29.0313 74.9076 29.2188 73.9074 29.2188C72.928 29.2188 71.9485 29.0313 70.9691 28.6562C70.0105 28.2602 69.1353 27.6663 68.3435 26.8745ZM84.2091 21.9044V16.8407H81.9272V13.371H84.2091V7.11943H87.8975V13.371H90.3356V16.8407H87.8975V21.9044C87.8975 22.8422 87.9704 23.5507 88.1163 24.03C88.2622 24.5093 88.4602 24.8427 88.7102 25.0302C88.9811 25.1969 89.2729 25.2907 89.5854 25.3116C89.9189 25.3324 90.2523 25.3428 90.5857 25.3428H91.1171V29.0625H90.6482C89.5021 29.0625 88.5227 28.9792 87.71 28.8125C86.8973 28.6457 86.2304 28.3227 85.7095 27.8435C85.1885 27.3433 84.803 26.6244 84.5529 25.6867C84.3237 24.7281 84.2091 23.4673 84.2091 21.9044ZM108.591 22.6234H97.6507C97.7341 23.5611 98.0883 24.28 98.7135 24.7802C99.3387 25.2803 100.11 25.572 101.027 25.6554C101.943 25.7179 102.881 25.5929 103.84 25.2803C104.819 24.9469 105.694 24.4468 106.465 23.7799L108.528 26.6244C107.382 27.583 106.215 28.2706 105.028 28.6874C103.861 29.0834 102.704 29.2813 101.558 29.2813C98.9115 29.2813 96.9214 28.5415 95.5877 27.062C94.2749 25.5825 93.6185 23.4882 93.6185 20.7792C93.6185 19.2371 93.9206 17.893 94.5249 16.7469C95.1501 15.6008 96.0253 14.7151 97.1506 14.09C98.2967 13.4648 99.6408 13.1626 101.183 13.1835C104.559 13.2251 106.809 14.5484 107.935 17.1532C108.247 17.9034 108.445 18.7265 108.528 19.6226C108.633 20.5187 108.654 21.5189 108.591 22.6234ZM101.527 16.6844C100.256 16.6844 99.2866 17.0282 98.6197 17.7159C97.9737 18.4036 97.6507 19.1642 97.6507 19.9977H105.371C105.371 19.1433 105.038 18.3827 104.371 17.7159C103.725 17.0282 102.777 16.6844 101.527 16.6844ZM115.984 29.1563C114.401 29.0729 113.202 28.6249 112.39 27.8122C111.577 26.9787 111.171 25.8325 111.171 24.3738C111.171 23.3111 111.441 22.4046 111.983 21.6544C112.525 20.8833 113.244 20.279 114.14 19.8414C115.036 19.4038 116.026 19.1329 117.11 19.0287C118.214 18.9245 119.329 18.9975 120.454 19.2475V18.2785C120.454 17.6117 120.183 17.1324 119.641 16.8407C119.1 16.5489 118.433 16.4135 117.641 16.4343C116.87 16.4551 116.088 16.6114 115.297 16.9032C114.526 17.1741 113.9 17.57 113.421 18.091L111.327 15.8091C112.119 15.0381 113.056 14.4338 114.14 13.9962C115.224 13.5586 116.339 13.3085 117.485 13.246C118.652 13.1835 119.746 13.3189 120.767 13.6523C121.809 13.9858 122.663 14.5276 123.33 15.2778C123.851 15.8612 124.143 16.6323 124.205 17.5908C124.268 18.5494 124.299 19.6018 124.299 20.7479V29H120.485V27.5621C119.839 28.1665 119.12 28.5936 118.329 28.8437C117.537 29.0729 116.755 29.1771 115.984 29.1563ZM120.36 24.5926V21.9044C118.193 21.7377 116.682 21.8732 115.828 22.3108C114.994 22.7484 114.578 23.4257 114.578 24.3426C114.578 24.926 114.776 25.3532 115.172 25.6241C115.588 25.8742 116.099 25.9992 116.703 25.9992C117.328 25.9784 117.964 25.8534 118.61 25.6241C119.277 25.3741 119.86 25.0302 120.36 24.5926ZM151.361 29H147.61V19.9977C147.61 18.8933 147.339 18.1222 146.797 17.6846C146.276 17.2262 145.568 16.9969 144.672 16.9969C143.755 16.9969 142.953 17.2262 142.265 17.6846C141.598 18.1222 141.265 18.8933 141.265 19.9977V29H137.639V19.9977C137.639 18.8933 137.337 18.1222 136.732 17.6846C136.149 17.247 135.451 17.0282 134.638 17.0282C134.054 17.0282 133.492 17.122 132.95 17.3095C132.429 17.4971 132.002 17.8096 131.668 18.2473C131.335 18.664 131.168 19.2475 131.168 19.9977V29H127.417V13.371H131.168V14.5588C131.668 14.0587 132.241 13.7149 132.887 13.5273C133.554 13.3189 134.211 13.2147 134.857 13.2147C135.815 13.2147 136.722 13.3919 137.576 13.7461C138.451 14.0795 139.15 14.5901 139.67 15.2778C140.212 14.5901 140.983 14.0795 141.984 13.7461C142.984 13.3919 143.953 13.2147 144.891 13.2147C146.058 13.2147 147.131 13.5065 148.11 14.09C149.09 14.6526 149.871 15.4445 150.454 16.4656C151.059 17.4658 151.361 18.6432 151.361 19.9977V29Z" fill="white"/>
<path d="M75.7829 60.7624C75.0952 60.7624 74.3658 60.6373 73.5948 60.3873C72.8238 60.158 72.1153 59.8455 71.4693 59.4495C70.8233 59.0536 70.344 58.616 70.0314 58.1367L72.407 55.6361C72.9488 56.1779 73.574 56.5842 74.2825 56.8551C74.991 57.126 75.6682 57.2094 76.3142 57.1052C76.9602 57.0218 77.4499 56.7197 77.7834 56.1987C78.0126 55.8653 78.1689 55.4798 78.2522 55.0422C78.3356 54.6045 78.3773 54.1461 78.3773 53.6668C77.1269 54.3545 75.9079 54.6358 74.7201 54.5108C73.5323 54.3857 72.4591 53.969 71.5005 53.2605C70.5419 52.5311 69.7709 51.5934 69.1874 50.4472C68.6248 49.3011 68.3435 48.0508 68.3435 46.6963C68.3435 45.1334 68.6144 43.7685 69.1562 42.6015C69.698 41.4137 70.4377 40.4864 71.3755 39.8195C72.3132 39.1319 73.3864 38.7463 74.5951 38.663C75.8245 38.5796 77.1165 38.8401 78.471 39.4444V38.7568H82.222V53.5105C82.222 55.7194 81.6594 57.4803 80.5341 58.7931C79.4296 60.1059 77.8459 60.7624 75.7829 60.7624ZM72.0319 46.6963C72.0319 47.8841 72.3445 48.8114 72.9696 49.4782C73.6156 50.1451 74.4283 50.5514 75.4078 50.6973C76.408 50.8223 77.4291 50.666 78.471 50.2284V43.0391C77.3041 42.3306 76.2309 42.0284 75.2515 42.1326C74.2721 42.216 73.4906 42.6536 72.9071 43.4455C72.3236 44.2165 72.0319 45.3001 72.0319 46.6963ZM87.6352 36.9125C86.9892 36.9125 86.4474 36.6937 86.0098 36.2561C85.5722 35.8185 85.3534 35.2767 85.3534 34.6307C85.3534 34.0055 85.5722 33.4742 86.0098 33.0366C86.4474 32.5989 86.9892 32.3801 87.6352 32.3801C88.2604 32.3801 88.7918 32.5989 89.2294 33.0366C89.667 33.4742 89.8858 34.0055 89.8858 34.6307C89.8858 35.2767 89.667 35.8185 89.2294 36.2561C88.7918 36.6937 88.2604 36.9125 87.6352 36.9125ZM89.3544 54.3857H85.916V38.7568H89.3544V54.3857ZM102.236 36.0373C101.361 36.0373 100.663 36.1103 100.142 36.2561C99.6211 36.402 99.246 36.6729 99.0168 37.0688C98.8084 37.4648 98.6938 38.0482 98.673 38.8193H100.986V42.1014H98.673V54.4483H94.9845V42.1014H92.7027V38.8193H95.0158C95.0158 36.7146 95.5888 35.0787 96.735 33.9118C97.8811 32.7448 99.7149 32.2238 102.236 32.3489V36.0373ZM106.401 47.2902V42.2264H104.119V38.7568H106.401V32.5052H110.089V38.7568H112.528V42.2264H110.089V47.2902C110.089 48.2279 110.162 48.9364 110.308 49.4157C110.454 49.895 110.652 50.2284 110.902 50.416C111.173 50.5827 111.465 50.6765 111.777 50.6973C112.111 50.7181 112.444 50.7286 112.778 50.7286H113.309V54.4483H112.84C111.694 54.4483 110.715 54.3649 109.902 54.1982C109.089 54.0315 108.422 53.7085 107.901 53.2292C107.38 52.7291 106.995 52.0101 106.745 51.0724C106.516 50.1138 106.401 48.8531 106.401 47.2902ZM115.81 52.2602L117.998 49.9159C119.103 50.8744 120.239 51.3537 121.406 51.3537C121.739 51.3537 122.041 51.3225 122.312 51.2599C122.604 51.1766 122.843 51.0516 123.031 50.8849C123.281 50.6556 123.427 50.3847 123.469 50.0721C123.51 49.7387 123.51 49.4678 123.469 49.2594C123.385 48.8843 123.125 48.5926 122.687 48.3842C122.27 48.155 121.749 47.957 121.124 47.7903C120.52 47.6028 119.895 47.3735 119.249 47.1026C118.603 46.8317 118.03 46.4671 117.53 46.0086C116.717 45.2376 116.248 44.4249 116.123 43.5705C116.019 42.6953 116.185 41.8826 116.623 41.1324C117.082 40.3822 117.748 39.7779 118.624 39.3194C119.499 38.8401 120.52 38.6005 121.687 38.6005C122.791 38.6005 123.781 38.7984 124.656 39.1944C125.532 39.5695 126.23 40.0592 126.751 40.6635L124.375 42.789C124.042 42.4765 123.625 42.2472 123.125 42.1014C122.645 41.9347 122.177 41.8513 121.718 41.8513C121.239 41.8513 120.822 41.9555 120.468 42.1639C120.114 42.3514 119.936 42.6848 119.936 43.1641C119.936 43.5392 120.082 43.8414 120.374 44.0706C120.666 44.2998 121.041 44.4978 121.499 44.6645C121.979 44.8312 122.489 45.0084 123.031 45.1959C123.594 45.3626 124.125 45.5814 124.625 45.8523C125.271 46.1857 125.813 46.665 126.251 47.2902C126.688 47.8945 126.907 48.6864 126.907 49.6658C126.907 50.7286 126.646 51.6246 126.126 52.354C125.625 53.0833 124.959 53.646 124.125 54.0419C123.291 54.417 122.375 54.6045 121.374 54.6045C120.395 54.6045 119.415 54.417 118.436 54.0419C117.477 53.646 116.602 53.0521 115.81 52.2602ZM130.519 54.5733C129.936 54.5525 129.436 54.3545 129.019 53.9794C128.623 53.5835 128.436 53.0937 128.456 52.5103C128.477 51.9476 128.675 51.4788 129.05 51.1037C129.446 50.7286 129.936 50.5306 130.519 50.5098C131.082 50.4889 131.551 50.6765 131.926 51.0724C132.301 51.4683 132.499 51.9476 132.52 52.5103C132.541 53.0937 132.353 53.5939 131.957 54.0106C131.561 54.4066 131.082 54.5941 130.519 54.5733ZM135.659 54.3857V38.7568H139.379V39.9133C140.192 39.0798 141.161 38.6734 142.286 38.6942C143.432 38.7151 144.693 38.9443 146.068 39.3819L144.255 42.6015C143.463 42.3306 142.682 42.2472 141.911 42.3514C141.161 42.4556 140.546 42.6848 140.067 43.0391C139.587 43.3934 139.358 43.8206 139.379 44.3207V54.3857H135.659ZM161.379 54.3857H157.628V53.1667C157.378 53.6668 156.898 54.0419 156.19 54.292C155.502 54.542 154.71 54.6671 153.814 54.6671C152.939 54.6671 152.085 54.5525 151.251 54.3232C150.438 54.0732 149.772 53.7189 149.251 53.2605C147.959 52.0935 147.313 50.3639 147.313 48.0716V38.7568H151.063V48.0716C151.063 49.1344 151.376 49.9054 152.001 50.3847C152.647 50.8432 153.45 51.0724 154.408 51.0724C154.887 51.0724 155.377 50.9682 155.877 50.7598C156.377 50.5514 156.794 50.2284 157.128 49.7908C157.461 49.3532 157.628 48.7801 157.628 48.0716V38.7568H161.379V54.3857Z" fill="white"/>
<path d="M13.1499 50.5809C13.1499 50.8155 13.3293 50.9949 13.5639 50.9949H49.8978C50.1323 50.9949 50.3117 50.8155 50.3117 50.5809V27.6187C50.3117 27.3841 50.1323 27.2047 49.8978 27.2047H13.5639C13.3293 27.2047 13.1499 27.3841 13.1499 27.6187V50.5809Z" stroke="white" stroke-width="3.27464" stroke-miterlimit="10"/>
<path d="M13.1499 27.2046L2 15.6821" stroke="white" stroke-width="3.27464" stroke-miterlimit="10"/>
<path d="M50.298 27.3565L61.4479 15.834" stroke="white" stroke-width="3.27464" stroke-miterlimit="10"/>
<path d="M19.7875 19.615L15.3303 12.9222" stroke="white" stroke-width="3.27464" stroke-miterlimit="10"/>
<path d="M25.3076 9.12744L27.6397 20.1532" stroke="white" stroke-width="3.27464" stroke-miterlimit="10"/>
<path d="M39.2587 42.729C41.5298 42.729 43.3709 40.8879 43.3709 38.6167C43.3709 36.3456 41.5298 34.5045 39.2587 34.5045C36.9876 34.5045 35.1465 36.3456 35.1465 38.6167C35.1465 40.8879 36.9876 42.729 39.2587 42.729Z" stroke="white" stroke-width="3.27464" stroke-miterlimit="10"/>
<path d="M24.3688 42.8532C26.6399 42.8532 28.481 41.0121 28.481 38.741C28.481 36.4699 26.6399 34.6288 24.3688 34.6288C22.0977 34.6288 20.2566 36.4699 20.2566 38.741C20.2566 41.0121 22.0977 42.8532 24.3688 42.8532Z" stroke="white" stroke-width="3.27464" stroke-miterlimit="10"/>
<path d="M37.2989 9.16882L34.9668 20.2084" stroke="white" stroke-width="3.27464" stroke-miterlimit="10"/>
<path d="M41.3835 19.6427L45.8408 12.95" stroke="white" stroke-width="3.27464" stroke-miterlimit="10"/>
</svg>
