<svg width="223" height="56" viewBox="0 0 223 56" fill="none" xmlns="http://www.w3.org/2000/svg">
<path d="M63.075 37V19.5H70.65C72.2167 19.5 73.5667 19.7583 74.7 20.275C75.8333 20.775 76.7083 21.5 77.325 22.45C77.9417 23.4 78.25 24.5333 78.25 25.85C78.25 27.15 77.9417 28.275 77.325 29.225C76.7083 30.175 75.8333 30.9083 74.7 31.425C73.5667 31.925 72.2167 32.175 70.65 32.175H65.325L67.125 30.35V37H63.075ZM67.125 30.8L65.325 28.875H70.425C71.675 28.875 72.6083 28.6083 73.225 28.075C73.8417 27.5417 74.15 26.8 74.15 25.85C74.15 24.8833 73.8417 24.1333 73.225 23.6C72.6083 23.0667 71.675 22.8 70.425 22.8H65.325L67.125 20.875V30.8ZM81.1105 37V18.45H85.0105V37H81.1105ZM96.8801 37V34.375L96.6301 33.8V29.1C96.6301 28.2667 96.3717 27.6167 95.8551 27.15C95.3551 26.6833 94.5801 26.45 93.5301 26.45C92.8134 26.45 92.1051 26.5667 91.4051 26.8C90.7217 27.0167 90.1384 27.3167 89.6551 27.7L88.2551 24.975C88.9884 24.4583 89.8717 24.0583 90.9051 23.775C91.9384 23.4917 92.9884 23.35 94.0551 23.35C96.1051 23.35 97.6967 23.8333 98.8301 24.8C99.9634 25.7667 100.53 27.275 100.53 29.325V37H96.8801ZM92.7801 37.2C91.7301 37.2 90.8301 37.025 90.0801 36.675C89.3301 36.3083 88.7551 35.8167 88.3551 35.2C87.9551 34.5833 87.7551 33.8917 87.7551 33.125C87.7551 32.325 87.9467 31.625 88.3301 31.025C88.7301 30.425 89.3551 29.9583 90.2051 29.625C91.0551 29.275 92.1634 29.1 93.5301 29.1H97.1051V31.375H93.9551C93.0384 31.375 92.4051 31.525 92.0551 31.825C91.7217 32.125 91.5551 32.5 91.5551 32.95C91.5551 33.45 91.7467 33.85 92.1301 34.15C92.5301 34.4333 93.0717 34.575 93.7551 34.575C94.4051 34.575 94.9884 34.425 95.5051 34.125C96.0217 33.8083 96.3967 33.35 96.6301 32.75L97.2301 34.55C96.9467 35.4167 96.4301 36.075 95.6801 36.525C94.9301 36.975 93.9634 37.2 92.7801 37.2ZM109.56 37.2C107.976 37.2 106.743 36.8 105.86 36C104.976 35.1833 104.535 33.975 104.535 32.375V20.575H108.435V32.325C108.435 32.8917 108.585 33.3333 108.885 33.65C109.185 33.95 109.593 34.1 110.11 34.1C110.726 34.1 111.251 33.9333 111.685 33.6L112.735 36.35C112.335 36.6333 111.851 36.85 111.285 37C110.735 37.1333 110.16 37.2 109.56 37.2ZM102.46 26.85V23.85H111.785V26.85H102.46ZM114.924 37V23.55H118.824V37H114.924ZM116.874 21.675C116.157 21.675 115.574 21.4667 115.124 21.05C114.674 20.6333 114.449 20.1167 114.449 19.5C114.449 18.8833 114.674 18.3667 115.124 17.95C115.574 17.5333 116.157 17.325 116.874 17.325C117.591 17.325 118.174 17.525 118.624 17.925C119.074 18.3083 119.299 18.8083 119.299 19.425C119.299 20.075 119.074 20.6167 118.624 21.05C118.191 21.4667 117.607 21.675 116.874 21.675ZM123.919 37.2C123.252 37.2 122.677 36.975 122.194 36.525C121.727 36.0583 121.494 35.4667 121.494 34.75C121.494 34.0333 121.727 33.4583 122.194 33.025C122.677 32.575 123.252 32.35 123.919 32.35C124.602 32.35 125.177 32.575 125.644 33.025C126.11 33.4583 126.344 34.0333 126.344 34.75C126.344 35.4667 126.11 36.0583 125.644 36.525C125.177 36.975 124.602 37.2 123.919 37.2ZM129.262 37V19.5H132.612L140.062 31.85H138.287L145.612 19.5H148.937L148.987 37H145.187L145.162 25.325H145.862L140.012 35.15H138.187L132.212 25.325H133.062V37H129.262ZM161.113 37V34.375L160.863 33.8V29.1C160.863 28.2667 160.605 27.6167 160.088 27.15C159.588 26.6833 158.813 26.45 157.763 26.45C157.047 26.45 156.338 26.5667 155.638 26.8C154.955 27.0167 154.372 27.3167 153.888 27.7L152.488 24.975C153.222 24.4583 154.105 24.0583 155.138 23.775C156.172 23.4917 157.222 23.35 158.288 23.35C160.338 23.35 161.93 23.8333 163.063 24.8C164.197 25.7667 164.763 27.275 164.763 29.325V37H161.113ZM157.013 37.2C155.963 37.2 155.063 37.025 154.313 36.675C153.563 36.3083 152.988 35.8167 152.588 35.2C152.188 34.5833 151.988 33.8917 151.988 33.125C151.988 32.325 152.18 31.625 152.563 31.025C152.963 30.425 153.588 29.9583 154.438 29.625C155.288 29.275 156.397 29.1 157.763 29.1H161.338V31.375H158.188C157.272 31.375 156.638 31.525 156.288 31.825C155.955 32.125 155.788 32.5 155.788 32.95C155.788 33.45 155.98 33.85 156.363 34.15C156.763 34.4333 157.305 34.575 157.988 34.575C158.638 34.575 159.222 34.425 159.738 34.125C160.255 33.8083 160.63 33.35 160.863 32.75L161.463 34.55C161.18 35.4167 160.663 36.075 159.913 36.525C159.163 36.975 158.197 37.2 157.013 37.2ZM168.293 37V23.55H172.018V27.35L171.493 26.25C171.893 25.3 172.535 24.5833 173.418 24.1C174.301 23.6 175.376 23.35 176.643 23.35V26.95C176.476 26.9333 176.326 26.925 176.193 26.925C176.06 26.9083 175.918 26.9 175.768 26.9C174.701 26.9 173.835 27.2083 173.168 27.825C172.518 28.425 172.193 29.3667 172.193 30.65V37H168.293ZM182.212 34.25L182.312 29.5L188.587 23.55H193.237L187.212 29.675L185.187 31.325L182.212 34.25ZM178.987 37V18.45H182.887V37H178.987ZM189.012 37L184.462 31.35L186.912 28.325L193.737 37H189.012ZM201.604 37.2C200.071 37.2 198.721 36.9 197.554 36.3C196.404 35.7 195.512 34.8833 194.879 33.85C194.246 32.8 193.929 31.6083 193.929 30.275C193.929 28.925 194.237 27.7333 194.854 26.7C195.487 25.65 196.346 24.8333 197.429 24.25C198.512 23.65 199.737 23.35 201.104 23.35C202.421 23.35 203.604 23.6333 204.654 24.2C205.721 24.75 206.562 25.55 207.179 26.6C207.796 27.6333 208.104 28.875 208.104 30.325C208.104 30.475 208.096 30.65 208.079 30.85C208.062 31.0333 208.046 31.2083 208.029 31.375H197.104V29.1H205.979L204.479 29.775C204.479 29.075 204.337 28.4667 204.054 27.95C203.771 27.4333 203.379 27.0333 202.879 26.75C202.379 26.45 201.796 26.3 201.129 26.3C200.462 26.3 199.871 26.45 199.354 26.75C198.854 27.0333 198.462 27.4417 198.179 27.975C197.896 28.4917 197.754 29.1083 197.754 29.825V30.425C197.754 31.1583 197.912 31.8083 198.229 32.375C198.562 32.925 199.021 33.35 199.604 33.65C200.204 33.9333 200.904 34.075 201.704 34.075C202.421 34.075 203.046 33.9667 203.579 33.75C204.129 33.5333 204.629 33.2083 205.079 32.775L207.154 35.025C206.537 35.725 205.762 36.2667 204.829 36.65C203.896 37.0167 202.821 37.2 201.604 37.2ZM216.2 37.2C214.617 37.2 213.384 36.8 212.5 36C211.617 35.1833 211.175 33.975 211.175 32.375V20.575H215.075V32.325C215.075 32.8917 215.225 33.3333 215.525 33.65C215.825 33.95 216.234 34.1 216.75 34.1C217.367 34.1 217.892 33.9333 218.325 33.6L219.375 36.35C218.975 36.6333 218.492 36.85 217.925 37C217.375 37.1333 216.8 37.2 216.2 37.2ZM209.1 26.85V23.85H218.425V26.85H209.1Z" fill="#F59521"/>
<path d="M30.5627 37.9248C28.1901 32.261 25.9609 26.9512 23.5787 21.2778C23.1099 22.0337 22.8325 22.4068 22.6315 22.8182C19.3022 29.7065 15.9537 36.5853 12.6721 43.5024C11.9833 44.9662 11.0265 45.6646 9.40969 45.5307C8.64432 45.4637 7.86938 45.5307 7.104 45.5211C4.91311 45.4924 4.28168 44.4591 5.2384 42.45C8.60605 35.4181 11.9737 28.3863 15.3413 21.3544C16.3555 19.2305 17.4557 17.1257 18.355 14.9539C18.9864 13.4327 20.0388 12.83 21.5887 12.8396C23.129 12.8491 24.6694 12.8491 26.2097 12.8396C27.4438 12.83 28.2475 13.3275 28.745 14.533C32.6771 23.9471 36.657 33.3421 40.6083 42.7466C41.3163 44.4304 40.6274 45.368 38.7523 45.5211C35.6238 45.7698 32.6293 45.2245 29.673 44.2582C28.3145 43.8086 26.9081 43.5216 25.2625 43.091C24.8703 45.6263 24.5546 47.9894 24.124 50.3334C23.9327 51.3858 23.8179 52.8209 23.1195 53.3471C21.6174 54.476 19.7997 55.2509 18.0106 55.9206C17.0634 56.2746 16.1737 55.2414 16.3555 54.1316C17.2644 48.5252 18.1924 42.9284 19.1682 37.3316C19.3787 36.107 20.1632 35.5234 21.4835 35.8678C23.8179 36.461 26.1523 37.0159 28.4962 37.5708C29.0416 37.7047 29.5965 37.7717 30.5627 37.9248Z" fill="#F59521"/>
<path d="M3.3629 27.5633C2.6932 27.5633 1.92783 27.7643 1.3825 27.5059C0.779765 27.2189 -0.0717173 26.444 0.0048202 26.0039C0.100492 25.4012 0.885002 24.5784 1.4973 24.454C2.6932 24.2148 3.96564 24.387 5.20937 24.387C6.43397 24.3966 6.32873 25.4107 6.42441 26.1474C6.52965 26.9319 6.16609 27.5633 5.22851 27.5825C4.60664 27.6016 3.98477 27.5825 3.3629 27.5825C3.3629 27.592 3.3629 27.5825 3.3629 27.5633Z" fill="#F59521"/>
<path d="M44.5786 24.3871C45.1527 24.3871 45.7363 24.3584 46.3007 24.3967C47.2479 24.4636 47.9654 25.009 47.7932 25.937C47.6784 26.5397 47.0278 27.4008 46.5016 27.4964C45.2005 27.7261 43.8228 27.6591 42.493 27.573C41.431 27.506 41.6702 26.5684 41.6319 25.8892C41.6032 25.2003 41.5937 24.4732 42.56 24.4158C43.2297 24.3775 43.8994 24.4062 44.5786 24.4062C44.5786 24.4062 44.5786 24.3967 44.5786 24.3871Z" fill="#F59521"/>
<path d="M41.0574 9.5295C40.7799 10.0748 40.646 10.5532 40.3494 10.888C39.5649 11.7874 38.7038 12.6197 37.9002 13.4999C37.3166 14.1409 36.7617 14.093 36.2068 13.4807C35.671 12.8971 34.8387 12.3518 35.6041 11.4429C36.4269 10.4575 37.2783 9.46253 38.2733 8.64932C38.6943 8.3049 39.5171 8.26663 40.1007 8.391C40.4642 8.46754 40.713 9.10854 41.0574 9.5295Z" fill="#F59521"/>
<path d="M6.2428 9.53895C6.56808 9.11799 6.78813 8.53439 7.18038 8.38132C7.63961 8.20911 8.41455 8.20911 8.75897 8.48656C9.82093 9.36674 10.7872 10.3713 11.6961 11.4141C12.471 12.3134 11.6196 12.8683 11.0934 13.4519C10.548 14.0642 10.0027 14.1408 9.39997 13.4998C8.58676 12.6292 7.71615 11.8064 6.93164 10.9071C6.63505 10.5818 6.51068 10.0938 6.2428 9.53895Z" fill="#F59521"/>
<path d="M25.3577 3.52112C25.3577 3.99948 25.329 4.47784 25.3672 4.9562C25.4533 6.11383 24.975 6.58262 23.7791 6.56349C22.5928 6.54436 22.3057 5.97032 22.3344 4.94663C22.3727 3.84641 22.3057 2.74618 22.344 1.64595C22.3823 0.650967 22.9372 -0.0187348 23.9513 0.000399613C24.9367 0.019534 25.3481 0.70837 25.3481 1.65552C25.3481 2.27739 25.3481 2.89926 25.3577 3.52112Z" fill="#F59521"/>
</svg>
