<svg width="18" height="19" viewBox="0 0 18 19" fill="none" xmlns="http://www.w3.org/2000/svg">
<path d="M11.9394 10.4187C12.2478 10.7301 12.2478 11.2348 11.9394 11.5461C11.6309 11.8575 11.131 11.8575 10.8227 11.5461C10.5145 11.2346 10.5143 10.7299 10.8227 10.4187C11.131 10.1074 11.6309 10.1074 11.9394 10.4187ZM6.91797 8.3076C7.22643 7.99616 7.22643 7.49142 6.91797 7.18019C6.60952 6.86876 6.10961 6.86876 5.80136 7.18019C5.4929 7.49163 5.4929 7.99637 5.80136 8.3076C6.10981 8.61882 6.60972 8.61882 6.91797 8.3076ZM17.0217 12.8971C16.3731 13.152 15.7245 13.4076 15.073 13.6546C14.9333 13.7077 14.8637 13.7682 14.8578 13.9361C14.8322 14.654 14.787 15.3713 14.7506 16.0887C14.7136 16.8206 14.1214 17.2543 13.4137 17.0649C12.7256 16.8807 12.0367 16.6992 11.3509 16.5069C11.214 16.4685 11.1386 16.503 11.0547 16.6104C10.6186 17.168 10.1766 17.7211 9.73354 18.2731C9.24999 18.8759 8.54472 18.8766 8.05483 18.2737C7.6079 17.724 7.1622 17.173 6.72345 16.6164C6.63652 16.5061 6.55797 16.4811 6.42502 16.5189C5.7629 16.7075 5.09179 16.8652 4.43602 17.0734C3.61047 17.3357 3.00338 16.7252 3.01074 16.0245C3.0179 15.3397 2.94099 14.654 2.91031 13.9684C2.90377 13.8213 2.85856 13.7486 2.71497 13.6953C2.03977 13.4459 1.36947 13.183 0.698765 12.9215C0.0524018 12.6695 -0.179553 11.9808 0.189652 11.3891C0.572765 10.7749 0.963652 10.1653 1.36047 9.55994C1.44699 9.42818 1.44945 9.33566 1.36108 9.20287C0.968152 8.61242 0.584629 8.01578 0.202538 7.41811C-0.200007 6.78822 0.0133335 6.10669 0.701834 5.83202C1.36374 5.56788 2.02831 5.31035 2.69472 5.05818C2.83115 5.00655 2.88208 4.94046 2.8874 4.78578C2.91174 4.06791 2.94263 3.34963 2.99315 2.6332C3.04715 1.86866 3.58879 1.48618 4.51763 1.71026C4.99627 1.84037 5.66267 2.01508 6.32458 2.2055C6.49947 2.25589 6.60358 2.22925 6.71895 2.07828C7.13949 1.52852 7.57518 0.99053 8.0084 0.450476C8.49011 -0.150296 9.20949 -0.149263 9.68874 0.448204C10.1271 0.994867 10.5707 1.53719 11.0042 2.08799C11.0997 2.20942 11.1817 2.24515 11.3374 2.19971C12.0132 2.00249 12.6933 1.82033 13.3728 1.63674C14.0955 1.44178 14.6811 1.87403 14.7199 2.62453C14.7566 3.33373 14.7999 4.04251 14.8304 4.7517C14.8367 4.89957 14.8883 4.97661 15.0243 5.0272C15.6694 5.26801 16.3103 5.52038 16.9554 5.76077C17.7139 6.04329 17.9448 6.72523 17.5061 7.41274C17.1336 7.99657 16.7629 8.58144 16.3815 9.15929C16.2952 9.29023 16.2884 9.37944 16.3782 9.5141C16.7722 10.1037 17.1547 10.7012 17.5376 11.2982C17.945 11.9343 17.7223 12.6218 17.0217 12.8971ZM6.35977 9.66589C7.40908 9.66589 8.26347 8.80325 8.26347 7.74379C8.26347 6.68433 7.40908 5.8219 6.35977 5.8219C5.31045 5.8219 4.45627 6.68454 4.45627 7.74379C4.45974 8.80696 5.31045 9.66589 6.35977 9.66589ZM11.7258 6.63146C11.8907 6.43465 11.8608 6.13953 11.6659 5.97307C11.4709 5.80662 11.1787 5.83677 11.0138 6.03358L6.0149 12.1099C5.85004 12.3067 5.8799 12.6018 6.07483 12.7683C6.26977 12.9347 6.56206 12.9046 6.72693 12.7077L11.7258 6.63146ZM13.2847 10.9825C13.2847 9.92301 12.4303 9.06057 11.3812 9.06057C10.3318 9.06057 9.47745 9.92321 9.47745 10.9825C9.47745 12.0419 10.3318 12.9046 11.3812 12.9046C12.4303 12.9044 13.2847 12.0417 13.2847 10.9825Z" fill="#FFC148"/>
</svg>
