<svg width="19" height="18" viewBox="0 0 19 18" fill="none" xmlns="http://www.w3.org/2000/svg">
<path d="M1 3.5C0.723858 3.5 0.5 3.72386 0.5 4C0.5 4.27614 0.723858 4.5 1 4.5L1 3.5ZM18.3536 4.35355C18.5488 4.15829 18.5488 3.84171 18.3536 3.64645L15.1716 0.464467C14.9763 0.269205 14.6597 0.269205 14.4645 0.464467C14.2692 0.659729 14.2692 0.976312 14.4645 1.17157L17.2929 4L14.4645 6.82843C14.2692 7.02369 14.2692 7.34027 14.4645 7.53554C14.6597 7.7308 14.9763 7.7308 15.1716 7.53554L18.3536 4.35355ZM1 4.5L18 4.5L18 3.5L1 3.5L1 4.5Z" fill="white"/>
<path d="M18 13.5C18.2761 13.5 18.5 13.7239 18.5 14C18.5 14.2761 18.2761 14.5 18 14.5L18 13.5ZM0.646446 14.3536C0.451185 14.1583 0.451185 13.8417 0.646446 13.6464L3.82843 10.4645C4.02369 10.2692 4.34027 10.2692 4.53553 10.4645C4.7308 10.6597 4.7308 10.9763 4.53553 11.1716L1.70711 14L4.53553 16.8284C4.7308 17.0237 4.7308 17.3403 4.53553 17.5355C4.34027 17.7308 4.02369 17.7308 3.82843 17.5355L0.646446 14.3536ZM18 14.5L1 14.5L1 13.5L18 13.5L18 14.5Z" fill="white"/>
</svg>
