<svg width="20" height="20" viewBox="0 0 20 20" fill="none" xmlns="http://www.w3.org/2000/svg">
<path fill-rule="evenodd" clip-rule="evenodd" d="M16.4811 3.69154C17.3877 3.30982 18.3596 4.07643 18.1995 5.047L16.3088 16.5109C16.1264 17.6163 14.9124 18.2505 13.8984 17.6997C13.0498 17.2388 11.7908 16.5293 10.6561 15.7879C10.0895 15.4177 8.3546 14.2305 8.56785 13.3854C8.75018 12.6628 11.6668 9.94793 13.3334 8.33334C13.9881 7.69912 13.6899 7.33273 12.9168 7.91668C10.9988 9.36526 7.91945 11.5677 6.90115 12.1875C6.00271 12.7343 5.53361 12.8277 4.97407 12.7343C3.95229 12.5641 3.00498 12.3004 2.23158 11.9798C1.18628 11.5465 1.23719 10.11 2.23088 9.69168L16.4811 3.69154Z" fill="#FFC148"/>
</svg>
